<?xml version="1.0" standalone="no"?>
<!DOCTYPE svg PUBLIC "-//W3C//DTD SVG 20010904//EN"
 "http://www.w3.org/TR/2001/REC-SVG-20010904/DTD/svg10.dtd">
<svg version="1.0" xmlns="http://www.w3.org/2000/svg"
 width="2752.000000pt" height="1536.000000pt" viewBox="0 0 2752.000000 1536.000000"
 preserveAspectRatio="xMidYMid meet">

<g transform="translate(0.000000,1536.000000) scale(0.100000,-0.100000)"
fill="#000000" stroke="none">
<path d="M12781 13013 c-6 -37 -16 -114 -21 -170 -6 -56 -15 -116 -20 -135 -6
-18 -10 -53 -10 -78 0 -25 -7 -76 -16 -115 -9 -38 -18 -101 -20 -139 -3 -38
-9 -77 -14 -87 -6 -10 -10 -36 -10 -59 0 -22 -7 -57 -16 -78 -8 -20 -17 -53
-19 -72 -2 -19 -13 -71 -25 -115 -31 -112 -59 -290 -48 -309 5 -8 15 -13 22
-10 13 5 18 28 31 129 6 51 13 83 18 93 3 4 8 30 11 57 4 28 11 65 17 82 9 27
16 94 18 165 1 9 7 23 14 30 7 7 16 21 20 31 3 9 11 17 16 17 9 0 9 -21 -4
-341 -15 -358 -9 -1151 9 -1245 2 -11 7 -47 11 -79 4 -33 9 -69 11 -80 2 -11
7 -40 10 -65 3 -25 12 -55 20 -67 13 -21 13 -23 -5 -23 -11 0 -69 47 -133 108
-62 59 -131 123 -152 142 -22 19 -51 48 -65 63 -14 15 -40 37 -58 49 l-34 20
-22 -24 c-21 -23 -33 -25 -141 -31 -80 -4 -124 -10 -141 -21 -18 -12 -59 -16
-192 -17 -228 -2 -310 -12 -447 -54 -65 -19 -134 -35 -155 -35 -35 0 -85 -7
-211 -30 -30 -6 -109 -15 -175 -20 -66 -5 -136 -12 -155 -15 -95 -15 -140 -27
-141 -38 -1 -7 -2 -16 -4 -22 -1 -5 -3 -15 -3 -20 -1 -6 -15 -19 -32 -28 -44
-27 -40 -59 10 -82 22 -10 40 -23 40 -28 0 -6 3 -7 6 -4 4 3 15 2 26 -4 20
-11 47 -13 253 -24 72 -3 142 -11 158 -17 25 -10 62 -7 137 8 14 3 39 4 55 3
41 -3 165 -2 250 2 39 2 95 1 125 -3 260 -34 839 -23 995 20 44 12 117 9 122
-5 2 -6 -52 -67 -120 -135 -68 -68 -132 -136 -142 -151 -10 -16 -36 -37 -57
-48 -42 -22 -45 -38 -9 -54 12 -5 24 -21 27 -35 3 -14 9 -33 15 -42 5 -10 9
-24 9 -32 0 -7 9 -40 19 -73 10 -33 24 -117 31 -188 6 -71 13 -133 16 -137 3
-4 11 -43 19 -85 7 -43 23 -121 34 -173 12 -52 42 -196 67 -320 24 -124 53
-265 64 -315 11 -49 20 -103 20 -118 0 -15 6 -43 14 -61 7 -18 17 -57 21 -87
3 -30 13 -74 20 -99 8 -25 19 -74 25 -110 12 -71 30 -130 40 -130 12 0 29 73
34 143 3 39 0 100 -9 145 -31 169 -35 692 -9 1337 11 266 11 480 0 638 -8 108
-7 117 9 117 10 0 74 -55 144 -123 159 -155 222 -202 259 -193 15 4 76 14 137
22 64 8 120 22 135 32 20 13 60 18 195 23 169 8 215 12 310 29 28 5 127 14
220 20 94 7 188 15 210 20 22 5 67 12 100 15 133 14 235 41 266 71 16 15 29
34 29 41 0 8 9 31 20 53 11 22 20 53 20 69 0 16 5 33 11 37 19 11 -7 20 -64
23 -28 1 -70 7 -92 12 -22 6 -52 11 -67 12 -16 1 -28 6 -28 10 0 5 -4 6 -9 3
-5 -3 -11 1 -14 8 -9 23 -227 45 -227 23 0 -5 -4 -5 -10 -2 -5 3 -10 1 -10 -4
0 -6 3 -11 8 -12 4 0 27 -2 52 -4 74 -6 130 -14 140 -20 6 -3 10 -1 10 5 0 7
5 6 14 -2 12 -11 12 -14 -3 -23 -19 -11 -107 -12 -931 -2 -549 6 -646 5 -723
-8 -50 -9 -92 -14 -94 -11 -2 2 37 41 88 87 51 46 117 109 148 139 31 30 69
64 85 76 l30 20 -12 71 c-7 40 -12 98 -12 129 0 45 -5 63 -22 81 -18 19 -24
44 -35 150 -7 70 -17 141 -23 157 -5 16 -10 48 -10 71 0 23 -9 76 -20 118 -11
42 -29 132 -40 199 -30 183 -50 295 -65 368 -8 36 -16 94 -20 130 -3 36 -12
99 -20 140 -7 41 -16 108 -20 149 -4 40 -11 85 -16 100 -6 14 -15 82 -20 151
-20 262 -37 381 -56 387 -7 3 -15 -21 -22 -64z"/>
<path d="M11510 11656 c0 -2 7 -6 15 -10 8 -3 15 -1 15 4 0 6 -7 10 -15 10 -8
0 -15 -2 -15 -4z"/>
<path d="M11675 11490 c2 -13 10 -30 18 -39 7 -9 19 -29 25 -44 18 -42 153
-193 180 -201 12 -3 22 -12 22 -19 0 -8 4 -7 10 3 8 12 10 10 11 -10 0 -16 3
-19 6 -10 4 8 12 21 20 29 12 11 11 16 -7 33 -11 10 -25 16 -32 12 -6 -4 -8
-3 -4 4 3 6 0 16 -7 24 -7 7 -16 21 -20 31 -3 9 -11 17 -17 17 -15 0 -47 35
-55 59 -3 12 -11 21 -16 21 -6 0 -7 -5 -4 -10 4 -6 -2 -9 -14 -7 -26 4 -31 9
-36 38 -3 13 -11 29 -20 35 -8 6 -12 14 -8 17 3 4 0 7 -7 7 -7 0 -22 7 -31 16
-17 15 -18 15 -14 -6z"/>
<path d="M12115 11010 c4 -6 11 -8 16 -5 14 9 11 15 -7 15 -8 0 -12 -5 -9 -10z"/>
<path d="M12165 10970 c3 -5 8 -10 11 -10 2 0 4 5 4 10 0 6 -5 10 -11 10 -5 0
-7 -4 -4 -10z"/>
<path d="M12198 10943 c9 -4 10 -8 2 -18 -9 -11 -7 -12 9 -8 23 6 17 33 -8 32
-11 0 -12 -2 -3 -6z"/>
<path d="M12215 10900 c3 -5 11 -10 16 -10 6 0 7 5 4 10 -3 6 -11 10 -16 10
-6 0 -7 -4 -4 -10z"/>
<path d="M15650 10351 c0 -16 19 -23 41 -16 17 6 19 9 8 16 -19 12 -49 11 -49
0z"/>
<path d="M13275 9820 c-3 -5 6 -17 20 -26 14 -9 28 -27 31 -40 3 -13 10 -24
16 -24 5 0 6 -5 3 -10 -4 -6 -3 -10 2 -9 24 4 43 -3 43 -15 0 -8 7 -17 16 -20
9 -4 14 -9 11 -12 -6 -6 9 -26 61 -79 17 -19 32 -31 32 -27 0 4 8 -3 18 -16
19 -24 58 -21 48 4 -3 7 -1 27 4 44 7 24 6 32 -5 37 -8 3 -12 9 -9 14 3 5 -4
9 -16 9 -12 0 -25 10 -31 24 -11 23 -38 36 -81 41 -32 4 -33 5 -18 15 13 8 12
10 -3 10 -10 0 -15 5 -12 10 4 6 3 9 -2 8 -14 -4 -53 13 -53 23 0 5 -6 9 -13
9 -7 0 -19 9 -27 20 -16 22 -26 25 -35 10z"/>
<path d="M11675 9350 c3 -5 0 -10 -8 -10 -16 0 -49 -44 -41 -53 6 -6 64 56 64
67 0 3 -5 6 -11 6 -5 0 -7 -4 -4 -10z"/>
<path d="M12890 8599 c0 -5 5 -7 10 -4 6 3 10 8 10 11 0 2 -4 4 -10 4 -5 0
-10 -5 -10 -11z"/>
<path d="M7223 7010 c-347 -3 -634 -8 -638 -12 -19 -18 11 -47 83 -80 131 -61
117 47 117 -907 0 -454 -4 -839 -8 -855 -11 -40 -68 -90 -119 -105 -55 -17
-68 -28 -68 -58 l0 -24 103 1 c56 1 350 -1 652 -5 359 -4 559 -3 576 3 29 11
60 66 114 201 65 165 69 246 9 219 -13 -6 -24 -14 -24 -18 0 -13 -64 -106 -99
-143 -40 -43 -126 -91 -193 -107 -144 -37 -525 -49 -583 -20 -54 28 -55 32
-55 457 0 356 2 393 17 409 15 15 37 16 208 12 268 -8 340 -32 392 -132 28
-53 56 -86 75 -86 21 0 24 33 7 110 -11 52 -1 165 26 297 10 51 10 66 -1 80
-12 17 -18 13 -71 -38 -102 -99 -138 -109 -414 -109 -149 0 -210 3 -222 13
-21 15 -21 16 -19 403 2 258 5 324 16 340 14 18 28 19 233 19 177 -1 232 -4
293 -19 156 -39 217 -93 250 -223 7 -27 17 -44 30 -48 38 -12 43 2 36 114 -12
178 -24 293 -33 301 -16 14 -63 15 -690 10z"/>
<path d="M8903 7010 c-166 -3 -305 -9 -309 -13 -11 -10 7 -38 32 -51 82 -44
148 -96 175 -139 16 -26 29 -51 29 -55 1 -4 9 -25 20 -47 11 -22 19 -46 20
-52 0 -11 18 -54 68 -163 7 -14 16 -32 21 -40 15 -26 80 -203 86 -237 4 -18
15 -50 26 -72 10 -22 19 -53 19 -69 0 -15 10 -50 23 -78 29 -61 65 -146 83
-199 8 -22 21 -53 29 -70 51 -108 119 -274 135 -330 7 -22 18 -49 25 -61 8
-12 30 -63 50 -114 19 -52 40 -99 44 -104 5 -6 20 -43 34 -81 34 -96 59 -138
88 -148 34 -12 77 7 90 40 6 16 19 46 28 68 10 22 25 63 34 90 26 84 93 268
109 300 8 17 34 89 57 160 23 72 51 149 62 173 10 23 19 49 19 57 0 9 8 34 19
58 10 23 26 65 36 92 10 28 28 75 40 105 12 30 38 102 56 160 18 58 39 116 46
130 7 14 13 29 13 33 0 5 11 33 25 63 14 30 25 58 25 62 0 15 68 176 122 290
32 68 85 119 166 162 37 20 47 31 47 50 l0 25 -254 3 c-243 2 -281 -1 -281
-27 0 -4 28 -27 62 -51 70 -51 98 -91 98 -137 0 -40 -74 -268 -124 -380 -20
-45 -36 -85 -36 -90 0 -4 -11 -29 -24 -54 -13 -25 -28 -63 -32 -84 -3 -22 -13
-53 -21 -69 -21 -40 -49 -130 -63 -200 -7 -33 -23 -85 -35 -115 -13 -31 -40
-99 -60 -151 -20 -52 -48 -117 -61 -144 -13 -28 -24 -58 -24 -67 0 -57 -42
-67 -65 -16 -8 17 -30 70 -50 117 -20 47 -43 99 -50 115 -69 162 -115 276
-115 289 0 9 -52 133 -80 191 -10 22 -23 56 -29 75 -12 44 -75 202 -100 255
-11 22 -34 78 -51 125 -17 47 -40 103 -50 125 -44 96 -35 131 51 201 65 52 75
83 29 93 -14 3 -161 4 -327 1z"/>
<path d="M11183 7012 c-100 -5 -110 -50 -17 -73 23 -6 61 -27 84 -46 79 -68
74 -11 76 -823 1 -399 -1 -768 -5 -821 -10 -138 -36 -172 -161 -210 -38 -12
-45 -18 -45 -39 l0 -25 115 -1 c63 -1 185 -4 270 -7 262 -11 948 -9 969 2 10
6 23 23 29 38 80 217 121 339 118 357 -1 10 -8 21 -16 26 -23 14 -55 -10 -89
-66 -18 -30 -56 -78 -84 -107 -43 -43 -66 -57 -132 -80 -116 -39 -197 -49
-400 -49 -196 0 -251 10 -271 51 -18 35 -13 803 5 824 12 15 37 17 183 17 271
0 393 -38 418 -132 5 -18 23 -49 39 -68 27 -32 31 -34 46 -19 15 15 16 25 6
90 -12 77 -9 150 15 289 19 115 19 120 -10 120 -17 0 -34 -14 -60 -50 -64 -89
-141 -110 -421 -110 -159 0 -194 3 -213 16 l-23 16 3 350 3 350 24 19 c21 17
41 19 226 19 297 0 384 -21 472 -112 29 -30 46 -61 59 -103 21 -71 34 -88 59
-79 16 7 17 17 11 128 -9 171 -21 273 -36 291 -10 13 -92 15 -599 17 -322 2
-614 2 -648 0z"/>
<path d="M13214 6995 c-8 -20 9 -40 49 -56 54 -22 116 -68 134 -102 17 -30 18
-90 18 -852 l0 -820 -26 -40 c-35 -54 -44 -60 -112 -80 -58 -17 -79 -37 -59
-57 13 -13 103 -15 782 -23 393 -5 500 -3 519 7 46 24 94 153 122 323 12 77 6
105 -25 105 -29 0 -35 -7 -79 -95 -43 -85 -73 -115 -152 -151 -89 -40 -301
-75 -425 -70 -160 7 -222 25 -236 68 -13 38 -6 1586 7 1641 12 52 56 95 137
136 37 19 43 26 40 49 l-3 27 -343 3 c-299 2 -343 0 -348 -13z"/>
<path d="M15181 7001 c-23 -15 -5 -38 63 -81 77 -48 111 -87 126 -138 6 -23
11 -265 14 -642 3 -574 4 -610 24 -700 12 -52 26 -104 31 -115 49 -108 73
-145 131 -204 36 -36 76 -71 90 -77 14 -6 56 -26 93 -43 144 -67 310 -87 504
-60 66 9 133 23 149 32 16 8 52 22 80 31 142 46 315 251 359 426 9 36 24 89
32 118 13 44 17 155 22 615 l6 562 29 58 c32 64 55 87 144 137 64 36 75 50 66
75 -9 21 -585 23 -603 1 -14 -17 -5 -43 17 -51 10 -2 42 -22 72 -43 44 -31 59
-48 79 -97 l25 -60 4 -502 c2 -353 0 -520 -9 -560 -6 -32 -14 -97 -18 -145 -6
-73 -14 -100 -45 -161 -67 -133 -138 -188 -310 -244 -73 -23 -90 -24 -230 -21
-146 3 -153 4 -211 35 -117 61 -152 114 -216 330 l-32 108 1 563 c0 309 3 579
7 599 11 62 43 111 98 152 78 60 89 71 85 89 -3 15 -33 17 -333 19 -182 2
-336 -1 -344 -6z"/>
<path d="M17610 6995 c-19 -23 7 -46 93 -85 116 -53 210 -157 348 -385 27 -44
82 -125 122 -180 90 -123 207 -322 207 -351 0 -12 -15 -47 -32 -78 -47 -82
-213 -321 -268 -386 -26 -30 -64 -82 -86 -115 -131 -204 -217 -292 -342 -351
-56 -27 -72 -47 -55 -73 8 -13 44 -15 267 -16 170 0 260 3 266 10 14 17 -11
56 -50 77 -19 10 -43 28 -52 41 -22 28 -23 89 -1 135 24 51 158 250 197 292
18 19 61 78 96 130 78 119 128 180 144 180 12 0 76 -80 76 -95 0 -4 19 -32 43
-63 23 -31 50 -68 59 -82 9 -14 38 -47 63 -75 26 -27 63 -74 83 -104 48 -70
82 -121 106 -157 10 -16 32 -48 47 -71 38 -54 38 -96 2 -128 -16 -14 -39 -35
-52 -46 -24 -21 -24 -22 -5 -36 13 -9 31 -12 57 -7 60 10 259 11 417 2 162 -9
185 -7 193 21 7 29 -3 37 -71 55 -35 9 -76 25 -90 37 -30 22 -82 87 -82 101 0
23 -145 221 -238 327 -32 35 -78 95 -104 135 -26 39 -57 83 -69 99 -11 15 -40
56 -64 90 -23 34 -56 82 -74 107 -93 132 -105 166 -74 212 79 118 139 200 173
238 23 25 66 83 97 130 137 207 217 301 298 354 28 18 65 47 84 65 28 26 31
34 21 46 -11 13 -51 15 -274 13 -234 -3 -261 -5 -264 -20 -2 -9 5 -22 14 -30
9 -7 39 -34 65 -59 49 -46 56 -66 49 -134 -4 -40 -162 -278 -273 -411 -23 -28
-51 -63 -62 -79 -15 -20 -26 -26 -40 -21 -21 7 -83 98 -108 157 -8 19 -45 84
-82 144 -88 141 -162 271 -170 295 -4 14 9 33 51 74 90 87 96 86 -306 86 -290
0 -339 -2 -350 -15z"/>
<path d="M14975 3800 c-3 -5 1 -10 10 -10 9 0 13 5 10 10 -3 6 -8 10 -10 10
-2 0 -7 -4 -10 -10z"/>
</g>
</svg>
